<svg width="48" height="49" viewBox="0 0 48 49" fill="none" xmlns="http://www.w3.org/2000/svg">
<path d="M40.634 8.38816C37.5747 6.98439 34.294 5.95016 30.8638 5.35782C30.8013 5.34638 30.7389 5.37495 30.7067 5.43209C30.2848 6.18252 29.8175 7.16152 29.4902 7.93101C25.8008 7.37867 22.1304 7.37867 18.5166 7.93101C18.1893 7.14442 17.705 6.18252 17.2811 5.43209C17.249 5.37686 17.1866 5.34829 17.1241 5.35782C13.6958 5.94827 10.4151 6.9825 7.35387 8.38816C7.32737 8.39958 7.30465 8.41865 7.28958 8.44339C1.06678 17.7401 -0.6379 26.8083 0.19836 35.7641C0.202144 35.8079 0.22674 35.8498 0.260796 35.8765C4.36642 38.8916 8.34341 40.722 12.2466 41.9352C12.309 41.9543 12.3752 41.9314 12.415 41.88C13.3383 40.6191 14.1613 39.2897 14.867 37.8916C14.9086 37.8097 14.8688 37.7126 14.7837 37.6802C13.4783 37.185 12.2352 36.5812 11.0395 35.8955C10.9449 35.8403 10.9373 35.705 11.0243 35.6403C11.2759 35.4517 11.5276 35.2555 11.7679 35.0574C11.8114 35.0213 11.872 35.0136 11.9231 35.0365C19.7786 38.623 28.2831 38.623 36.0459 35.0365C36.097 35.0117 36.1576 35.0194 36.203 35.0555C36.4433 35.2536 36.6949 35.4517 36.9484 35.6403C37.0354 35.705 37.0298 35.8403 36.9352 35.8955C35.7394 36.5945 34.4964 37.185 33.189 37.6783C33.1039 37.7107 33.0661 37.8097 33.1077 37.8916C33.8285 39.2877 34.6515 40.6172 35.5578 41.8781C35.5956 41.9314 35.6637 41.9543 35.7262 41.9352C39.6483 40.722 43.6252 38.8916 47.7309 35.8765C47.7668 35.8498 47.7895 35.8098 47.7933 35.766C48.7942 25.4121 46.117 16.4183 40.6964 8.44528C40.6832 8.41865 40.6605 8.39958 40.634 8.38816ZM16.04 30.311C13.675 30.311 11.7263 28.1397 11.7263 25.4731C11.7263 22.8065 13.6372 20.6353 16.04 20.6353C18.4617 20.6353 20.3916 22.8256 20.3538 25.4731C20.3538 28.1397 18.4428 30.311 16.04 30.311ZM31.9895 30.311C29.6245 30.311 27.6758 28.1397 27.6758 25.4731C27.6758 22.8065 29.5867 20.6353 31.9895 20.6353C34.4113 20.6353 36.3411 22.8256 36.3033 25.4731C36.3033 28.1397 34.4113 30.311 31.9895 30.311Z" fill="white"/>
</svg>
