<?xml version="1.0" encoding="UTF-8"?><svg id="Layer_2" xmlns="http://www.w3.org/2000/svg" xmlns:xlink="http://www.w3.org/1999/xlink" viewBox="0 0 923.3 678.79"><defs><style>.cls-1{fill:url(#linear-gradient);}.cls-1,.cls-2,.cls-3,.cls-4,.cls-5,.cls-6,.cls-7,.cls-8,.cls-9,.cls-10{stroke-width:0px;}.cls-2{fill:url(#linear-gradient-4);}.cls-3{fill:url(#linear-gradient-2);}.cls-4{fill:url(#linear-gradient-3);}.cls-5{fill:url(#linear-gradient-7);}.cls-6{fill:url(#linear-gradient-5);}.cls-7{fill:url(#linear-gradient-6);}.cls-9{fill:#ff9700;}.cls-10{fill:#fff;}</style><linearGradient id="linear-gradient" x1="265.87" y1="630.59" x2="265.87" y2="345.19" gradientUnits="userSpaceOnUse"><stop offset="0" stop-color="#ffd173"/><stop offset="1" stop-color="#ff8733"/></linearGradient><linearGradient id="linear-gradient-2" x1="503.98" y1="598.49" x2="503.98" y2="324.52" xlink:href="#linear-gradient"/><linearGradient id="linear-gradient-3" x1="755.94" y1="575.72" x2="755.94" y2="298.58" xlink:href="#linear-gradient"/><linearGradient id="linear-gradient-4" x1="155.28" y1="368.83" x2="155.28" y2="98.09" xlink:href="#linear-gradient"/><linearGradient id="linear-gradient-5" x1="324.52" y1="344.67" x2="324.52" y2="80.69" xlink:href="#linear-gradient"/><linearGradient id="linear-gradient-6" x1="489.15" y1="329.12" x2="489.15" y2="59.46" xlink:href="#linear-gradient"/><linearGradient id="linear-gradient-7" x1="728.75" y1="290.86" x2="728.75" y2="47.64" xlink:href="#linear-gradient"/></defs><g id="Main"><path class="cls-10" d="m923.05,520.74l-14.05-126.78c-1.21-10.97-6.89-21.17-15.6-28-3.87-3.02-8.22-5.31-12.83-6.79l-1.1-58.49c-.23-12.62-6.35-24.41-16.14-31.98,6.74-9.72,12.47-20.13,17.07-31.07,5.54-13.18,9.48-27.23,11.69-41.73,2.21-14.49,2.63-29.5,1.24-44.6-2.22-24.03-8.29-46.05-18.04-65.46-10.03-19.94-23.43-36.88-39.84-50.37-16.43-13.49-35.71-23.34-57.32-29.27-20.8-5.71-43.36-7.5-67.07-5.31-15.73,1.45-30.81,5.11-44.83,10.89-13.44,5.55-25.96,12.81-37.2,21.56-2.44-4.66-5.76-8.85-9.81-12.29-8.37-7.11-19.41-10.64-30.37-9.68-.09,0-.18.02-.27.02l-212.28,19.97c-1.61.15-3.2.39-4.76.73-2.38-.06-4.77.08-7.15.44l-103.02,15c-14.22,2.06-25.82,11.37-31.54,23.65-11.76-6.49-24.52-11.53-38.14-15.04-20.64-5.31-42.88-6.92-66.1-4.78-16.56,1.53-33.34,4.14-49.88,7.77-17.34,3.8-34.32,9.19-50.48,16.02C8.94,82.04-1.15,98.52.11,116.14l18.65,261.9c1.53,21.58,19,38.08,40.64,38.39,6.83.1,13.61.02,20.13-.22,6.56-.24,13.38-.68,20.26-1.31,3.94-.36,7.87-.79,11.78-1.29.08.78.15,1.55.23,2.32,1.55,15.43,2.93,31.1,4.1,46.59,0,.09.01.18.02.26,2.53,30.36,5.11,60.46,7.66,89.45,2.56,29.2,5.26,59.15,8.01,89.03,1.98,21.4,20.03,37.53,41.12,37.53,1.26,0,2.54-.06,3.82-.18l90.77-8.37c10.99-1.01,20.93-6.25,27.99-14.74,7.05-8.49,10.38-19.21,9.37-30.21l-4.89-53c11.55-2.9,22.82-6.64,33.54-11.15,11.47-4.82,22.36-10.71,32.42-17.53,2.66,6.52,5.73,12.91,9.17,19.11,5.65,10.19,12.39,19.88,20.03,28.79,8.09,9.46,17.16,17.74,26.94,24.61,10.39,7.31,21.77,12.97,33.82,16.82,13.1,4.19,26.82,5.78,40.78,4.74,3.65-.23,7.34-.66,11.03-1.28.27.25.55.5.84.75,8.47,7.36,19.73,10.98,30.81,9.97.88-.08,1.74-.19,2.65-.33.14-.02.28-.04.43-.07l79.33-13.21c20.21-3.37,34.73-20.69,34.52-41.17,0-.59-.01-1.18-.02-1.77,15.3,11.35,32.65,19.96,51.66,25.63,21.42,6.4,44.47,8.52,68.51,6.3,12.06-1.11,24.69-3.44,37.53-6.93,12.94-3.51,25.63-8.2,37.71-13.95,12.56-5.97,24.37-13.23,35.08-21.54,12.01-9.31,22.09-20.12,29.95-32.1,5.28-8.03,7.61-17.71,6.55-27.26Z"/><path class="cls-1" d="m340.86,502.91c7.78-5.47,14.49-11.94,19.95-19.24,5.39-7.21,9.47-15.59,12.11-24.89,2.64-9.29,3.43-19.96,2.34-31.72-.99-10.78-3.45-20.44-7.29-28.72-3.86-8.31-8.8-15.68-14.69-21.91-5.9-6.23-12.8-11.52-20.52-15.71-7.89-4.29-16.44-7.74-25.42-10.27-9-2.53-18.48-4.15-28.17-4.82-9.76-.67-19.59-.56-29.2.32-17.26,1.59-34.14,4.38-50.17,8.29-14.62,3.57-29.34,8.2-43.82,13.79.71,14.5,1.79,28.99,3.21,43.15,1.59,15.81,3,31.86,4.2,47.7,2.5,29.97,5.05,59.72,7.64,89.2,2.4,27.4,4.88,54.91,7.41,82.52l78.18-7.21-7.79-84.48c-.32-3.45,2.19-6.51,5.64-6.87,10.07-1.06,20.41-2.82,30.74-5.23,10.25-2.39,20.21-5.61,29.6-9.57,9.3-3.91,18.05-8.73,26.02-14.33Zm-41.08-45.88c-1.95,4.9-4.79,9.31-8.45,13.12-3.64,3.79-7.97,6.86-12.86,9.14-4.85,2.26-10.03,3.65-15.41,4.15l-5.26.49c-2,.18-4.09.22-6.2.12-3.24-.16-5.83-2.75-5.99-5.99l-2.91-57.1c-.14-2.8,1.58-5.36,4.22-6.29,2.68-.94,5.59-1.81,8.67-2.58,13.63-3.41,25.46-1.95,34.43,4.92,7,5.37,11.02,13.27,11.97,23.5.54,5.91-.2,11.47-2.21,16.54Z"/><path class="cls-3" d="m597.38,325.99c-15.12,1.55-30.1,2.91-44.88,4.04-6.04.46-12.12.9-18.23,1.29.04.26.08.51.11.77.37,2.56.69,5.2.94,7.91.37,4.06.81,9.83,1.28,17.14.47,7.21.91,15.58,1.31,24.87.39,9.24.61,19.24.66,29.74.05,10.53-.21,21.16-.76,31.57-.56,10.44-1.5,20.64-2.8,30.32-1.32,9.85-3.22,18.77-5.65,26.5-2.54,8.1-5.83,14.81-9.77,19.95-4.6,6.02-10.36,9.38-17.1,10-6.39.59-11.85-1.89-15.8-7.17-3.02-4.04-5.45-8.86-7.21-14.33-1.66-5.12-2.89-10.46-3.67-15.85-.73-5.06-1.24-9.09-1.5-11.97-1.11-12.05-1.49-24.18-1.12-36.04.36-11.78,1.2-23.76,2.49-35.58,1.28-11.72,2.88-23.61,4.77-35.33,1.44-8.9,2.89-17.79,4.37-26.66-13.21,1.29-26.57,2.31-39.85,2.98-14.3.74-28.55,1.41-42.76,2.04-1.38,9.79-2.4,19.99-3.02,30.39-.73,12.31-1.11,24.91-1.12,37.45,0,12.58.34,25.22,1.03,37.56.69,12.36,1.58,24.53,2.65,36.16.69,7.43,2.3,15.14,4.81,22.93,2.52,7.84,5.88,15.56,9.98,22.95,4.09,7.38,8.99,14.42,14.56,20.92,5.5,6.43,11.6,12.02,18.14,16.61,6.44,4.53,13.49,8.04,20.94,10.42,7.29,2.33,15.02,3.2,22.99,2.58,3.53-.21,7.13-.74,10.86-1.63,3.68-.87,7.26-2.09,10.64-3.63,3.31-1.51,6.42-3.4,9.25-5.6,2.75-2.15,5.14-4.62,7.1-7.34,1.09-1.52,2.77-2.44,4.55-2.6.86-.08,1.74.02,2.59.3,2.63.88,4.38,3.38,4.31,6.15l-.55,22.68,66.44-11.07c-.42-44.11-.65-88.63-.67-132.39-.02-42.98.71-86.86,2.16-130.52-4.18.56-8.35,1.05-12.49,1.47Z"/><path class="cls-4" d="m831.01,558.62c9.46-4.5,18.33-9.94,26.36-16.17,7.2-5.58,13.27-11.89,18.08-18.77l-13.08-118.06c-17.42,2.28-34.87,4.43-51.97,6.41-17.42,2.02-34.89,4.13-52,6.27l2.41,46.32,40.37-3.05c1.71-.13,3.4.44,4.68,1.58s2.04,2.75,2.11,4.46l.62,15.27c.07,1.77-.6,3.49-1.86,4.74-4.15,4.13-9.31,7.28-15.32,9.36-5.59,1.94-11.18,3.18-16.6,3.68-8.3.77-15.93-.31-22.67-3.19-6.59-2.82-12.34-6.87-17.09-12.05-4.66-5.08-8.38-11.12-11.05-17.95-2.6-6.64-4.27-13.73-4.94-21.05-1.08-11.67.13-22.35,3.58-31.74,3.45-9.39,8.67-17.55,15.49-24.25,6.73-6.61,14.96-11.95,24.44-15.87,9.31-3.85,19.6-6.31,30.57-7.33,7.64-.7,15.58-.93,23.62-.66,5.48.18,10.95.79,16.33,1.81l-1.18-62.73c-3.81-1.51-7.89-2.76-12.18-3.74-5.83-1.32-11.87-2.24-17.95-2.74-6.17-.5-12.42-.69-18.56-.56-6.22.13-12.12.45-17.53.94-14.13,1.3-27.5,4.4-39.72,9.21-12.21,4.81-23.41,11.11-33.27,18.74-9.89,7.64-18.66,16.6-26.07,26.61-7.45,10.06-13.62,21.1-18.37,32.79-4.75,11.73-8.14,24.32-10.06,37.43-1.93,13.12-2.27,26.65-1.02,40.24,1.63,17.66,6.27,33.87,13.78,48.17,7.51,14.29,17.32,26.47,29.14,36.18,11.83,9.72,25.71,17,41.25,21.63,15.57,4.65,32.56,6.17,50.5,4.51,9.33-.86,19.24-2.7,29.44-5.47,10.19-2.76,20.19-6.46,29.71-10.99Z"/><path class="cls-8" d="m167.24,289.78c6.54-4.96,12.12-10.91,16.58-17.69,4.44-6.75,7.73-14.21,9.77-22.17,2.03-7.89,2.82-16.05,2.34-24.46l-.25-2.67c-.56-7.53-2.06-14.81-4.44-21.62-2.49-7.11-6.14-13.37-10.83-18.62-4.77-5.34-10.66-9.51-17.5-12.39-6.87-2.89-14.86-4.09-23.73-3.56-.07,0-.14,0-.21.02-3.31.3-5.83,3.13-5.74,6.47l3.35,121.49c.05,1.91.97,3.7,2.49,4.85,1.27.97,2.85,1.41,4.41,1.27.31-.03.62-.08.93-.16,8.49-2.09,16.17-5.7,22.83-10.75Zm-9.23-107.97c5.1,2.15,9.46,5.23,12.98,9.17,3.58,4.01,6.38,8.84,8.32,14.37,2.02,5.78,3.29,11.98,3.77,18.43,0,.04,0,.08,0,.11l.24,2.5c.39,6.89-.27,13.74-1.98,20.37-1.7,6.6-4.42,12.79-8.09,18.37-3.67,5.58-8.26,10.48-13.65,14.57-3.23,2.45-6.78,4.48-10.61,6.07l-2.94-106.57c4.44.26,8.44,1.13,11.96,2.61Z"/><path class="cls-8" d="m750.31,216.07c5.39-3.31,9.9-7.58,13.39-12.71,3.41-5.01,5.91-10.71,7.41-16.92,1.48-6.14,1.94-12.49,1.35-18.87-.57-6.19-2.05-12.2-4.39-17.87-2.38-5.77-5.61-10.9-9.59-15.23-4.08-4.44-9.01-7.94-14.64-10.39-5.81-2.53-12.31-3.48-19.33-2.83-6.99.64-13.26,2.54-18.63,5.64-5.33,3.07-9.86,7.08-13.45,11.9-3.57,4.8-6.17,10.31-7.71,16.38-1.52,5.97-1.99,12.24-1.39,18.66.56,6.02,1.98,12.02,4.25,17.85,2.31,5.96,5.49,11.33,9.46,15.97,4.09,4.8,9.03,8.58,14.68,11.26,5.88,2.78,12.52,3.85,19.73,3.19,7.06-.65,13.4-2.68,18.85-6.03Zm-33.18-8.59c-4.08-1.93-7.51-4.56-10.47-8.04-3.04-3.56-5.5-7.71-7.29-12.34-1.84-4.73-3-9.59-3.44-14.44-.46-4.97-.1-9.81,1.06-14.38,1.13-4.46,3.01-8.48,5.59-11.95,2.55-3.43,5.79-6.29,9.62-8.49,3.78-2.18,8.32-3.53,13.48-4,4.94-.46,9.24.15,13.13,1.84,4,1.74,7.49,4.21,10.37,7.34,2.98,3.24,5.4,7.11,7.21,11.5,1.86,4.5,3.03,9.28,3.48,14.21.46,4.99.11,9.95-1.05,14.74-1.14,4.72-3.02,9.02-5.57,12.77-2.48,3.64-5.69,6.68-9.56,9.05-3.78,2.33-8.29,3.74-13.4,4.21-5,.46-9.31-.2-13.16-2.03Z"/><path class="cls-8" d="m888.27,524.6l-14.05-126.79c-.19-1.69-1.05-3.23-2.39-4.28-1.34-1.05-3.05-1.53-4.73-1.29-19.48,2.58-39.05,5.01-58.17,7.23-19.44,2.26-38.94,4.62-57.96,7.02-3.29.41-5.69,3.29-5.52,6.6l3.05,58.65c.09,1.7.86,3.29,2.14,4.42,1.28,1.12,2.95,1.69,4.65,1.56l40.3-3.04.23,5.76c-2.43,1.93-5.29,3.48-8.56,4.61-11.14,3.87-21.95,4.32-30.16.8-4.93-2.11-9.22-5.12-12.74-8.96-3.6-3.93-6.5-8.65-8.6-14.02-2.17-5.54-3.56-11.46-4.12-17.6-.9-9.78.06-18.6,2.86-26.21,2.8-7.62,7-14.21,12.48-19.59,5.57-5.47,12.44-9.92,20.42-13.21,8.14-3.37,17.19-5.53,26.9-6.42,7.11-.66,14.53-.86,22.03-.61,7.29.25,14.54,1.34,21.56,3.26,1.92.52,3.98.11,5.55-1.11,1.57-1.22,2.47-3.12,2.44-5.11l-1.41-74.91c-.05-2.42-1.47-4.61-3.67-5.62-5.59-2.58-11.74-4.64-18.28-6.12-6.41-1.45-13.04-2.47-19.72-3.01-2.84-.23-5.68-.39-8.53-.49,4.45-2.59,8.71-5.4,12.75-8.47,9.03-6.87,17.12-14.95,24.05-24.03,6.89-9.05,12.63-18.98,17.06-29.5,4.43-10.53,7.58-21.79,9.36-33.46,1.79-11.68,2.12-23.83.98-36.1-1.81-19.66-6.68-37.47-14.46-52.95-7.82-15.55-18.18-28.69-30.78-39.04-12.61-10.35-27.54-17.95-44.38-22.58-16.72-4.59-35.09-6.01-54.58-4.21-12.25,1.13-23.92,3.95-34.69,8.39-10.72,4.43-20.66,10.22-29.55,17.22-8.88,6.98-16.84,15.15-23.67,24.28-6.81,9.09-12.51,19.04-16.93,29.55-2.05,4.88-3.82,9.9-5.32,15.04l-5.35-78.1c-.12-1.7-.91-3.28-2.21-4.38-1.3-1.1-2.98-1.63-4.67-1.48,0,0,0,0-.01,0l-212.28,19.97c-1.96.18-3.62,1.24-4.64,2.76-.15-.15-.3-.29-.47-.43-1.38-1.15-3.18-1.67-4.95-1.39l-103.12,15.01c-3.4.49-5.78,3.61-5.36,7.02l29.9,244.95s0,0,0,0c-3.59-.5-7.22-.89-10.88-1.14-10.44-.72-20.95-.6-31.24.35-10.27.95-20.41,2.32-30.34,4.07,2.77-2.09,5.46-4.25,8.08-6.48,11.27-9.65,20.85-20.96,28.49-33.61,7.65-12.66,13.29-27.02,16.75-42.67,3.45-15.61,4.33-33.02,2.6-51.78-1.84-19.96-6.86-37.83-14.91-53.11-8.09-15.35-18.75-28.2-31.68-38.19-12.89-9.96-27.97-17.21-44.84-21.56-16.73-4.31-34.96-5.59-54.16-3.82-15.11,1.39-30.45,3.78-45.61,7.1-15.26,3.34-30.18,8.08-44.34,14.06-2.49,1.05-4.04,3.57-3.84,6.27l18.65,261.91c.23,3.28,2.94,5.83,6.22,5.87,6.28.09,12.46.02,18.37-.2,5.93-.21,12.09-.62,18.32-1.19,16.1-1.48,31.89-4.19,46.98-8.02.72,13.58,1.73,27.14,3.07,40.4,1.58,15.71,2.98,31.65,4.18,47.44,2.51,30.04,5.05,59.8,7.65,89.3,2.59,29.5,5.25,59.13,8,88.87.32,3.48,3.4,6.03,6.88,5.71l90.77-8.37c3.48-.32,6.03-3.4,5.71-6.88l-7.81-84.63c8.61-1.13,17.37-2.72,26.1-4.77,10.94-2.56,21.58-6,31.63-10.22,10.13-4.26,19.68-9.52,28.39-15.64,8.88-6.24,16.55-13.65,22.8-22.02,6.32-8.45,11.08-18.21,14.15-29,.52-1.81.95-3.68,1.34-5.57.03.54.05,1.09.08,1.64.69,12.51,1.6,24.83,2.68,36.62.77,8.35,2.57,16.98,5.37,25.64,2.77,8.63,6.46,17.11,10.96,25.21,4.5,8.12,9.89,15.87,16.01,23.01,6.19,7.23,13.08,13.53,20.48,18.73,7.48,5.26,15.68,9.34,24.36,12.12,8.85,2.83,18.22,3.89,27.7,3.15,4.12-.25,8.47-.89,12.91-1.94,4.48-1.06,8.85-2.55,12.98-4.44,3.35-1.53,6.54-3.37,9.53-5.47l-.36,14.89c-.05,1.89.75,3.69,2.17,4.93,1.31,1.13,3.01,1.68,4.72,1.52.15-.01.31-.03.46-.06l79.32-13.21c3.07-.51,5.31-3.19,5.28-6.3-.46-45.85-.7-92.17-.72-137.68-.02-45.31.79-91.61,2.41-137.61.07-1.88-.71-3.69-2.11-4.94-1.4-1.25-3.3-1.87-5.15-1.53-6.45.98-12.98,1.81-19.4,2.47-13.54,1.39-26.94,2.61-40.2,3.66l-8.98-168.56,52.04-6.92c.93-.12,1.78-.45,2.53-.92-.54,2.57-1.03,5.15-1.43,7.76-1.8,11.56-2.16,23.38-1.08,35.14,1.11,12.06,3.75,23.69,7.83,34.55,4.07,10.82,9.37,20.97,15.76,30.15,6.4,9.21,13.98,17.55,22.53,24.78,8.56,7.24,18.06,13.32,28.23,18.07,10.16,4.75,21.06,8.22,32.39,10.31,1.35.25,2.71.47,4.08.68-8.9,4.37-17.22,9.5-24.83,15.38-10.81,8.36-20.4,18.15-28.51,29.1-8.08,10.91-14.78,22.88-19.92,35.57-5.13,12.66-8.78,26.23-10.85,40.33-2.08,14.11-2.45,28.66-1.1,43.24,1.78,19.32,6.89,37.12,15.18,52.89,8.3,15.79,19.17,29.28,32.31,40.07,13.14,10.8,28.5,18.86,45.66,23.98,17.12,5.11,35.72,6.79,55.28,4.99,10.05-.93,20.68-2.9,31.59-5.86,10.92-2.96,21.63-6.92,31.84-11.77,10.28-4.89,19.93-10.81,28.67-17.59,8.94-6.93,16.4-14.89,22.16-23.67.81-1.23,1.16-2.7,1-4.17ZM274.33,93.8l90.07-13.11,10.32,253.86-52.27,7.58c-3.81-1.44-7.7-2.73-11.67-3.85-2.25-.63-4.52-1.2-6.81-1.73,0,0,0,0,0,0l-29.63-242.75Zm60.76,253.87c-.31-.16-.63-.31-.94-.46.31.15.63.3.94.46Zm-3.91-1.88c-.3-.14-.6-.27-.9-.41.3.14.6.27.9.41Zm-4.16-1.83c-.2-.08-.4-.17-.61-.25.2.08.4.17.61.25Zm-32.56-9.27c-.21-.03-.43-.07-.64-.1.21.03.43.07.64.1Zm6.84,1.28c-.26-.05-.52-.11-.78-.16.26.05.52.11.78.16Zm-3.35-.67c-.27-.05-.55-.1-.82-.15.27.05.55.1.82.15Zm-202.52,32.16c-6,.55-11.92.94-17.62,1.14-3.87.14-7.87.22-11.94.23l-17.91-251.52c12.2-4.88,24.94-8.79,37.95-11.65,14.65-3.21,29.47-5.52,44.06-6.86,17.75-1.64,34.52-.47,49.84,3.48,15.2,3.92,28.74,10.41,40.26,19.32,11.49,8.87,20.98,20.34,28.22,34.08,7.28,13.81,11.82,30.09,13.51,48.38,1.61,17.45.82,33.56-2.35,47.89-3.16,14.3-8.29,27.37-15.23,38.86-6.94,11.5-15.65,21.77-25.89,30.54-10.36,8.86-22.07,16.53-34.8,22.79-2.7,1.33-5.47,2.59-8.27,3.82-9.43,2.93-18.84,6.26-28.13,9.97-.12.05-.22.11-.33.16-1.63.46-3.26.91-4.91,1.34-14.88,3.86-30.52,6.56-46.47,8.03Zm277.5,91.3c-2.65,9.3-6.72,17.68-12.11,24.89-5.46,7.3-12.17,13.78-19.95,19.24-7.97,5.6-16.72,10.42-26.02,14.33-9.4,3.95-19.35,7.17-29.6,9.57-10.33,2.42-20.67,4.18-30.74,5.23-3.44.36-5.95,3.42-5.64,6.87l7.79,84.48-78.18,7.21c-2.54-27.61-5.01-55.12-7.41-82.52-2.59-29.48-5.14-59.22-7.64-89.2-1.2-15.84-2.61-31.89-4.2-47.7-1.41-13.99-2.47-28.3-3.18-42.63,8.18-2.53,16.1-5.45,23.7-8.75,6.7-2.07,13.4-3.93,20.09-5.56,16.03-3.91,32.91-6.7,50.17-8.29,9.61-.89,19.44-.99,29.2-.32,9.69.67,19.17,2.3,28.17,4.82,8.98,2.52,17.53,5.98,25.42,10.27,7.71,4.19,14.62,9.48,20.52,15.71,5.89,6.22,10.83,13.59,14.69,21.91,3.84,8.28,6.3,17.95,7.29,28.72,1.08,11.76.3,22.43-2.34,31.72Zm-34.1-109.16c.85.46,1.68.94,2.51,1.43-.83-.48-1.66-.97-2.51-1.43Zm51.68-4.49c-1.84,11.73-3.16,24.08-3.91,36.71-.58,9.65-.93,19.47-1.07,29.3-1.48-6.49-3.49-12.56-6.08-18.13-4.43-9.55-10.14-18.06-16.97-25.28-5.76-6.09-12.35-11.38-19.62-15.79l39.32-5.7c3.21-.46,5.54-3.28,5.41-6.51l-7.01-172.42c.4.88,1,1.67,1.77,2.29,1.37,1.11,3.12,1.58,4.89,1.34l51.43-7.54,23.13,173.04c-5.82.42-11.65.8-17.45,1.1-16.01.82-31.97,1.57-47.86,2.25-3.05.2-5.51,2.36-5.97,5.34Zm131.51-10.25c.28,2.05.53,4.14.73,6.29.36,3.95.79,9.6,1.25,16.81.47,7.11.9,15.38,1.29,24.58.38,9.08.6,18.92.65,29.27.05,10.29-.2,20.67-.75,30.84-.54,10.1-1.45,19.97-2.71,29.32-1.22,9.14-2.97,17.34-5.18,24.39-2.1,6.68-4.7,12.08-7.74,16.05-2.44,3.19-5.05,4.81-8.22,5.1-1.63.15-3.02-.16-4.51-2.16-2.19-2.92-3.97-6.5-5.3-10.64-1.44-4.45-2.51-9.09-3.19-13.77-.7-4.85-1.18-8.66-1.43-11.33-1.06-11.54-1.42-23.14-1.07-34.49.35-11.46,1.17-23.1,2.43-34.61,1.25-11.51,2.83-23.18,4.68-34.69,1.87-11.62,3.78-23.21,5.72-34.76.16-.95.09-1.9-.16-2.8l23.49-3.41Zm75.38-8.88c4.14-.42,8.31-.92,12.49-1.47-1.45,43.66-2.18,87.53-2.16,130.52.02,43.76.24,88.27.67,132.39l-66.44,11.07.55-22.68c.07-2.77-1.68-5.26-4.31-6.15-.85-.29-1.73-.38-2.59-.3-1.78.16-3.46,1.08-4.55,2.6-1.96,2.72-4.35,5.19-7.1,7.34-2.83,2.2-5.94,4.09-9.25,5.6-3.38,1.54-6.96,2.76-10.64,3.63-3.72.88-7.32,1.42-10.86,1.63-7.97.62-15.7-.25-22.99-2.58-7.46-2.39-14.5-5.89-20.94-10.42-6.54-4.59-12.64-10.18-18.14-16.61-5.57-6.5-10.47-13.54-14.56-20.92-4.1-7.38-7.46-15.11-9.98-22.95-2.51-7.78-4.13-15.5-4.81-22.93-1.07-11.64-1.97-23.8-2.65-36.16-.69-12.34-1.04-24.98-1.03-37.56,0-12.54.38-25.14,1.12-37.45.62-10.41,1.63-20.61,3.02-30.39,14.21-.63,28.46-1.3,42.76-2.04,13.28-.68,26.64-1.7,39.85-2.98-1.48,8.87-2.93,17.75-4.37,26.66-1.89,11.72-3.49,23.61-4.77,35.33-1.29,11.83-2.13,23.8-2.49,35.58-.37,11.86,0,23.99,1.12,36.04.27,2.88.77,6.91,1.5,11.97.78,5.39,2.01,10.72,3.67,15.85,1.76,5.47,4.19,10.3,7.21,14.33,3.95,5.28,9.41,7.76,15.8,7.17,6.74-.62,12.49-3.99,17.1-10,3.94-5.14,7.22-11.85,9.77-19.95,2.43-7.73,4.32-16.65,5.65-26.5,1.3-9.68,2.24-19.88,2.8-30.32.55-10.42.81-21.04.76-31.57-.05-10.5-.27-20.51-.66-29.74-.4-9.3-.84-17.67-1.31-24.87-.47-7.31-.91-13.08-1.28-17.14-.22-2.38-.5-4.68-.81-6.95l16.35-2.37c.75-.11,1.45-.35,2.08-.69,14.64-1.12,29.47-2.47,44.45-4.01Zm-57.93-189.24c-3.27.43-5.65,3.31-5.48,6.6l9.3,174.67c-5.58.4-11.18.78-16.82,1.12-1.82.06-3.5,1-4.61,2.44-.15.19-.28.39-.4.59l-47.88,6.95-23.23-173.75c-.22-1.67-1.11-3.19-2.46-4.21-1.26-.95-2.82-1.39-4.39-1.25-.11.01-.22.02-.34.04l-50.99,7.48-5.28-79.19,199.7-18.78,4.82,70.38-51.95,6.91Zm139.22,142.91c-9.16-4.27-17.71-9.74-25.42-16.27-7.71-6.52-14.54-14.04-20.32-22.34-5.79-8.33-10.6-17.54-14.3-27.38-3.69-9.81-6.07-20.32-7.08-31.26-.99-10.72-.66-21.5.98-32.04,1.64-10.53,4.51-20.72,8.54-30.28,4.02-9.56,9.2-18.6,15.4-26.87,6.17-8.24,13.36-15.62,21.37-21.92,7.98-6.28,16.92-11.48,26.56-15.47,9.6-3.96,20.04-6.48,31.03-7.49,17.98-1.66,34.82-.38,50.07,3.82,15.12,4.15,28.48,10.93,39.71,20.16,11.23,9.22,20.49,20.98,27.51,34.95,7.07,14.06,11.5,30.35,13.16,48.43,1.04,11.25.74,22.36-.89,33.03-1.63,10.64-4.49,20.89-8.51,30.46-4.02,9.54-9.22,18.53-15.47,26.74-6.23,8.18-13.51,15.46-21.64,21.63-8.13,6.18-17.27,11.31-27.18,15.26-5.96,2.37-12.26,4.23-18.82,5.56-1.95.31-3.88.65-5.8,1.03-2.46.38-4.94.69-7.46.92-11.05,1.02-21.85.57-32.09-1.32-10.28-1.9-20.15-5.04-29.34-9.34Zm178.68,262.79c-8.03,6.23-16.89,11.67-26.36,16.17-9.52,4.53-19.52,8.23-29.71,10.99-10.21,2.77-20.11,4.61-29.44,5.47-17.94,1.65-34.93.14-50.5-4.51-15.54-4.63-29.41-11.91-41.25-21.63-11.83-9.72-21.63-21.89-29.14-36.18-7.52-14.3-12.15-30.5-13.78-48.17-1.25-13.59-.91-27.13,1.02-40.24,1.93-13.1,5.31-25.7,10.06-37.43,4.74-11.7,10.92-22.73,18.37-32.79,7.41-10.02,16.19-18.97,26.07-26.61,9.87-7.63,21.06-13.93,33.27-18.74,7.54-2.97,15.52-5.28,23.84-6.92,1.95-.3,3.88-.64,5.8-1.03,3.31-.52,6.67-.95,10.08-1.26,5.41-.5,11.31-.82,17.53-.94,6.14-.13,12.38.06,18.56.56,6.08.5,12.12,1.42,17.95,2.74,4.29.97,8.38,2.23,12.18,3.74l1.18,62.73c-5.38-1.02-10.85-1.63-16.33-1.81-8.03-.27-15.98-.05-23.62.66-10.97,1.01-21.26,3.48-30.57,7.33-9.48,3.92-17.71,9.26-24.44,15.87-6.83,6.7-12.04,14.85-15.49,24.25-3.45,9.39-4.66,20.07-3.58,31.74.68,7.32,2.34,14.4,4.94,21.05,2.67,6.83,6.39,12.87,11.05,17.95,4.74,5.18,10.5,9.23,17.09,12.05,6.74,2.88,14.37,3.96,22.67,3.19,5.42-.5,11.01-1.74,16.6-3.68,6.01-2.08,11.17-5.23,15.32-9.36,1.25-1.25,1.93-2.97,1.86-4.74l-.62-15.27c-.07-1.71-.83-3.32-2.11-4.46s-2.97-1.71-4.68-1.58l-40.37,3.05-2.41-46.32c17.12-2.14,34.59-4.25,52-6.27,17.09-1.98,34.54-4.13,51.97-6.41l13.08,118.06c-4.81,6.88-10.89,13.19-18.08,18.77Z"/><path class="cls-8" d="m290.01,416.99c-8.96-6.87-20.8-8.33-34.43-4.92-3.07.78-5.99,1.64-8.67,2.58-2.65.93-4.37,3.49-4.22,6.29l2.91,57.1c.17,3.24,2.75,5.83,5.99,5.99,2.11.11,4.19.07,6.2-.12l5.26-.49c5.38-.5,10.57-1.89,15.41-4.15,4.89-2.28,9.21-5.35,12.86-9.14,3.66-3.81,6.5-8.22,8.45-13.12,2.01-5.06,2.75-10.63,2.21-16.54-.94-10.23-4.97-18.13-11.97-23.5Zm-1.99,35.37c-1.36,3.41-3.26,6.37-5.82,9.02-2.56,2.66-5.61,4.83-9.08,6.44-3.52,1.64-7.31,2.66-11.24,3.02l-3.97.37-2.34-46.04c1.01-.29,2.04-.57,3.1-.83,2.57-.64,5.08-1.08,7.46-1.3,6.6-.61,11.89.7,16.2,3.99,4.14,3.18,6.45,7.96,7.07,14.62.37,3.96-.08,7.47-1.37,10.71Z"/><path class="cls-2" d="m47.95,117.31l17.91,251.52c4.07,0,8.06-.08,11.94-.23,5.7-.21,11.62-.59,17.62-1.14,15.95-1.47,31.58-4.17,46.47-8.03,14.79-3.83,28.8-8.98,41.65-15.29,12.74-6.26,24.45-13.93,34.8-22.79,10.24-8.77,18.95-19.04,25.89-30.54,6.94-11.49,12.06-24.56,15.23-38.86,3.17-14.33,3.96-30.44,2.35-47.89-1.69-18.29-6.23-34.57-13.51-48.38-7.24-13.74-16.73-25.2-28.22-34.08-11.52-8.9-25.07-15.4-40.26-19.32-15.32-3.95-32.09-5.12-49.84-3.48-14.59,1.35-29.41,3.66-44.06,6.86-13.01,2.86-25.76,6.76-37.95,11.65Zm91.02,49.29c.07,0,.14-.01.21-.02,8.88-.52,16.86.67,23.73,3.56,6.84,2.88,12.73,7.05,17.5,12.39,4.69,5.25,8.34,11.51,10.83,18.62,2.39,6.81,3.88,14.09,4.44,21.62l.25,2.67c.48,8.41-.31,16.56-2.34,24.46-2.04,7.96-5.33,15.41-9.77,22.17-4.46,6.78-10.04,12.74-16.58,17.69-6.66,5.05-14.34,8.67-22.83,10.75-.31.08-.62.13-.93.16-1.57.14-3.14-.3-4.41-1.27-1.52-1.16-2.43-2.94-2.49-4.85l-3.35-121.49c-.09-3.34,2.43-6.16,5.74-6.47Z"/><polygon class="cls-6" points="274.33 93.8 304.95 344.67 374.72 334.55 364.4 80.69 274.33 93.8"/><path class="cls-7" d="m539.46,136.75l51.95-6.91-4.82-70.38-199.7,18.78,5.28,79.19,50.99-7.48c.11-.02.22-.03.34-.04,1.56-.14,3.13.3,4.39,1.25,1.35,1.02,2.24,2.53,2.46,4.21l23.23,173.75,69.77-10.12-9.35-175.64c-.18-3.29,2.21-6.17,5.48-6.6Z"/><path class="cls-5" d="m799.38,267.55c8.13-6.18,15.41-13.46,21.64-21.63,6.25-8.2,11.45-17.2,15.47-26.74,4.02-9.57,6.89-19.82,8.51-30.46,1.63-10.67,1.93-21.78.89-33.03-1.67-18.08-6.1-34.37-13.16-48.43-7.02-13.96-16.28-25.72-27.51-34.95-11.23-9.22-24.59-16-39.71-20.16-15.25-4.19-32.09-5.47-50.07-3.82-10.99,1.01-21.43,3.53-31.03,7.49-9.64,3.98-18.58,9.18-26.56,15.47-8.01,6.3-15.2,13.67-21.37,21.92-6.19,8.27-11.37,17.31-15.4,26.87-4.02,9.57-6.9,19.75-8.54,30.28-1.64,10.54-1.97,21.31-.98,32.04,1.01,10.94,3.39,21.45,7.08,31.26,3.7,9.84,8.52,19.06,14.3,27.38,5.77,8.31,12.61,15.83,20.32,22.34,7.71,6.52,16.26,12,25.42,16.27,9.19,4.3,19.06,7.44,29.34,9.34,10.24,1.9,21.03,2.34,32.09,1.32,11.42-1.05,22.22-3.58,32.08-7.51,9.91-3.95,19.05-9.08,27.18-15.26Zm-35.67-64.2c-3.5,5.13-8,9.4-13.39,12.71-5.45,3.35-11.79,5.38-18.85,6.03-7.22.67-13.86-.41-19.73-3.19-5.65-2.67-10.59-6.46-14.68-11.26-3.97-4.65-7.15-10.02-9.46-15.97-2.26-5.83-3.69-11.83-4.25-17.85-.59-6.41-.12-12.69,1.39-18.66,1.54-6.07,4.13-11.58,7.71-16.38,3.59-4.83,8.11-8.83,13.45-11.9,5.37-3.1,11.64-4.99,18.63-5.64,7.02-.65,13.52.31,19.33,2.83,5.63,2.45,10.56,5.94,14.64,10.39,3.98,4.34,7.21,9.46,9.59,15.23,2.34,5.67,3.81,11.68,4.39,17.87.59,6.38.13,12.73-1.35,18.87-1.5,6.21-4,11.9-7.41,16.92Z"/><path class="cls-10" d="m735.73,293.92c-.51-1.16-1.15-2.18-1.93-3.05-.78-.87-1.72-1.53-2.79-1.98-.83-.35-1.77-.47-2.81-.37-.3.03-.61.07-.94.14-1.72.35-3.15,1.1-4.29,2.25-1.14,1.15-2.04,2.5-2.72,4.03-.68,1.53-1.16,3.14-1.45,4.83-.29,1.69-.45,3.23-.48,4.61l18.78-5.62-.28-1.36c-.23-1.15-.6-2.31-1.11-3.47Z"/><path class="cls-10" d="m774.22,305.73c-.23-4.12-.76-8.25-1.57-12.26-.8-3.92-1.93-7.75-3.37-11.41-1.48-3.75-3.31-7.3-5.44-10.53-2.22-3.37-4.82-6.41-7.74-9.04-3.05-2.74-6.47-4.99-10.19-6.67-3.74-1.7-7.85-2.8-12.21-3.28-2.69-.29-5.51-.31-8.37-.04-1.75.16-3.55.43-5.36.8-5.59,1.14-10.67,3.01-15.1,5.57-4.41,2.55-8.29,5.68-11.52,9.31-2.84,3.2-5.24,6.77-7.18,10.6l-1.41-6.18c-1.06-4.67-5.42-7.77-10.11-7.34-.26.02-.53.06-.79.11l-29.63,5.25c-2.51.45-4.74,1.88-6.18,3.99-.27.39-.5.8-.71,1.22-1.4-.57-2.93-.8-4.45-.66-.2.02-.4.04-.61.08l-31.04,4.89c-.26.04-.51.14-.76.2-1.38-.55-2.87-.79-4.36-.66-.35.03-.69.08-1.03.15l-70.44,14.45c-5.03,1.03-8.32,5.87-7.44,10.92l5.13,29.33c.46,2.6,1.98,4.9,4.2,6.33,1.79,1.16,3.91,1.67,6.01,1.47.5-.05,1-.13,1.49-.26l9.37-2.41,9.77,48.81c.51,2.55,2.05,4.78,4.25,6.17,1.78,1.12,3.86,1.61,5.92,1.42.49-.05.99-.13,1.48-.26l27-6.91c4.6-1.18,7.62-5.57,7.07-10.29l-5.98-51.27,6.46-1.57,9.14,52.76c.44,2.52,1.88,4.77,3.99,6.21,1.83,1.25,4.03,1.81,6.22,1.61.34-.03.68-.08,1.02-.15l28.96-5.89c3.62-.74,6.35-3.45,7.26-6.81.5.49,1.05.94,1.66,1.31,1.77,1.1,3.84,1.58,5.89,1.4.48-.04.96-.13,1.44-.25l32.02-8.05c5-1.26,8.08-6.28,6.93-11.3l-.04-.17c2.43,1.67,5,3.12,7.72,4.3,4.14,1.79,8.62,2.95,13.32,3.44,2.91.3,5.95.31,9.03.03,1.92-.18,3.9-.47,5.88-.88,2.41-.49,4.87-1.14,7.31-1.94,2.5-.82,4.96-1.8,7.33-2.94,2.49-1.21,4.86-2.6,7.05-4.15,2.35-1.66,4.49-3.56,6.38-5.64,1.77-1.96,2.65-4.57,2.41-7.21l-2.36-26.28c3.92-1.41,6.5-5.24,6.26-9.46Z"/><path class="cls-9" d="m596.99,289.13l4.66,26.34-19.12,4.66,6.95,59.6-27,6.91-11.74-58.63-19.06,4.9-5.13-29.33,70.44-14.45Z"/><path class="cls-9" d="m694.67,358.74l-32.02,8.05-5.54-26.03-14.87,3.02,4.58,27.26-28.96,5.89-15.14-87.41,31.05-4.89,7.05,44.78,14.35-2.92-9.28-46.51,29.63-5.25,19.16,84.02Z"/><path class="cls-9" d="m763.35,295.35c.73,3.58,1.19,7.22,1.4,10.91-7.28,1.95-14.46,4.17-21.53,6.66-7.08,2.49-14.16,4.97-21.24,7.44,1.72,2.74,3.96,4.75,6.71,6.04,2.75,1.29,5.78,1.59,9.1.92,1.72-.35,3.55-1.04,5.47-2.08,1.92-1.03,3.8-2.22,5.64-3.56,1.84-1.34,3.58-2.73,5.21-4.18,1.64-1.45,3.03-2.74,4.2-3.88l2.58,28.69c-1.43,1.58-3.04,3-4.82,4.26-1.79,1.26-3.68,2.38-5.68,3.35-2,.96-4.06,1.79-6.16,2.47-2.11.69-4.19,1.24-6.26,1.66-4.27.87-8.28,1.1-12.04.71-3.76-.4-7.28-1.3-10.55-2.72-3.27-1.42-6.26-3.27-8.96-5.55-2.71-2.28-5.09-4.89-7.17-7.81-2.08-2.93-3.84-6.11-5.3-9.54-1.46-3.43-2.56-6.99-3.3-10.66-.78-3.83-1.19-7.74-1.23-11.72-.04-3.98.32-7.89,1.09-11.74.77-3.85,1.98-7.51,3.63-11,1.65-3.49,3.75-6.68,6.31-9.55,2.56-2.88,5.61-5.35,9.17-7.4,3.55-2.05,7.64-3.55,12.25-4.49,3.83-.78,7.44-.99,10.81-.62,3.37.37,6.48,1.19,9.32,2.48,2.84,1.29,5.43,2.98,7.76,5.08,2.33,2.1,4.39,4.51,6.17,7.21,1.78,2.71,3.29,5.64,4.54,8.8,1.25,3.16,2.21,6.43,2.9,9.81Zm-26.51,2.04c-.23-1.15-.6-2.31-1.11-3.47-.51-1.16-1.15-2.18-1.93-3.05-.78-.87-1.72-1.53-2.79-1.98-1.08-.45-2.33-.52-3.75-.23-1.72.35-3.15,1.1-4.29,2.25-1.14,1.15-2.04,2.5-2.72,4.03-.68,1.53-1.16,3.14-1.45,4.83-.29,1.69-.45,3.23-.48,4.61l18.78-5.62-.27-1.36Z"/></g></svg>