<svg width="48" height="49" viewBox="0 0 48 49" fill="none" xmlns="http://www.w3.org/2000/svg">
<g clip-path="url(#clip0_3_6)">
<path d="M24 4.39884C30.4125 4.39884 31.1719 4.42696 33.6938 4.53946C36.0375 4.64259 37.3031 5.03634 38.1469 5.36447C39.2625 5.79572 40.0688 6.32072 40.9031 7.15509C41.7469 7.99884 42.2625 8.79572 42.6938 9.91134C43.0219 10.7551 43.4156 12.0301 43.5188 14.3645C43.6313 16.8957 43.6594 17.6551 43.6594 24.0582C43.6594 30.4707 43.6313 31.2301 43.5188 33.752C43.4156 36.0957 43.0219 37.3613 42.6938 38.2051C42.2625 39.3207 41.7375 40.127 40.9031 40.9613C40.0594 41.8051 39.2625 42.3207 38.1469 42.752C37.3031 43.0801 36.0281 43.4738 33.6938 43.577C31.1625 43.6895 30.4031 43.7176 24 43.7176C17.5875 43.7176 16.8281 43.6895 14.3063 43.577C11.9625 43.4738 10.6969 43.0801 9.85313 42.752C8.7375 42.3207 7.93125 41.7957 7.09688 40.9613C6.25313 40.1176 5.7375 39.3207 5.30625 38.2051C4.97813 37.3613 4.58438 36.0863 4.48125 33.752C4.36875 31.2207 4.34063 30.4613 4.34063 24.0582C4.34063 17.6457 4.36875 16.8863 4.48125 14.3645C4.58438 12.0207 4.97813 10.7551 5.30625 9.91134C5.7375 8.79572 6.2625 7.98947 7.09688 7.15509C7.94063 6.31134 8.7375 5.79572 9.85313 5.36447C10.6969 5.03634 11.9719 4.64259 14.3063 4.53946C16.8281 4.42696 17.5875 4.39884 24 4.39884ZM24 0.0769653C17.4844 0.0769653 16.6688 0.10509 14.1094 0.21759C11.5594 0.33009 9.80625 0.74259 8.2875 1.33322C6.70312 1.95197 5.3625 2.76759 4.03125 4.10822C2.69063 5.43947 1.875 6.78009 1.25625 8.35509C0.665625 9.88322 0.253125 11.627 0.140625 14.177C0.028125 16.7457 0 17.5613 0 24.077C0 30.5926 0.028125 31.4082 0.140625 33.9676C0.253125 36.5176 0.665625 38.2707 1.25625 39.7895C1.875 41.3738 2.69063 42.7145 4.03125 44.0457C5.3625 45.377 6.70313 46.202 8.27813 46.8113C9.80625 47.402 11.55 47.8145 14.1 47.927C16.6594 48.0395 17.475 48.0676 23.9906 48.0676C30.5063 48.0676 31.3219 48.0395 33.8813 47.927C36.4313 47.8145 38.1844 47.402 39.7031 46.8113C41.2781 46.202 42.6188 45.377 43.95 44.0457C45.2812 42.7145 46.1063 41.3738 46.7156 39.7988C47.3063 38.2707 47.7188 36.527 47.8313 33.977C47.9438 31.4176 47.9719 30.602 47.9719 24.0863C47.9719 17.5707 47.9438 16.7551 47.8313 14.1957C47.7188 11.6457 47.3063 9.89259 46.7156 8.37384C46.125 6.78009 45.3094 5.43947 43.9688 4.10822C42.6375 2.77697 41.2969 1.95197 39.7219 1.34259C38.1938 0.751965 36.45 0.339465 33.9 0.226965C31.3313 0.10509 30.5156 0.0769653 24 0.0769653Z" fill="white"/>
<path d="M24 11.7488C17.1938 11.7488 11.6719 17.2707 11.6719 24.077C11.6719 30.8832 17.1938 36.4051 24 36.4051C30.8062 36.4051 36.3281 30.8832 36.3281 24.077C36.3281 17.2707 30.8062 11.7488 24 11.7488ZM24 32.0738C19.5844 32.0738 16.0031 28.4926 16.0031 24.077C16.0031 19.6613 19.5844 16.0801 24 16.0801C28.4156 16.0801 31.9969 19.6613 31.9969 24.077C31.9969 28.4926 28.4156 32.0738 24 32.0738Z" fill="white"/>
<path d="M39.6937 11.2612C39.6937 12.855 38.4 14.1394 36.8156 14.1394C35.2219 14.1394 33.9375 12.8456 33.9375 11.2612C33.9375 9.66749 35.2313 8.38312 36.8156 8.38312C38.4 8.38312 39.6937 9.67687 39.6937 11.2612Z" fill="white"/>
</g>
<defs>
<clipPath id="clip0_3_6">
<rect width="48" height="48" fill="white" transform="translate(0 0.0769653)"/>
</clipPath>
</defs>
</svg>
