<svg width="48" height="49" viewBox="0 0 48 49" fill="none" xmlns="http://www.w3.org/2000/svg">
<g clip-path="url(#clip0_3_13)">
<path d="M34.1451 0.0769653H26.0556V32.7726C26.0556 36.6683 22.9444 39.8683 19.0725 39.8683C15.2007 39.8683 12.0894 36.6683 12.0894 32.7726C12.0894 28.9466 15.1315 25.816 18.8651 25.677V17.4683C10.6374 17.6074 4 24.3552 4 32.7726C4 41.2596 10.7757 48.077 19.1417 48.077C27.5075 48.077 34.2833 41.19 34.2833 32.7726V16.0074C37.3255 18.2335 41.059 19.5552 45 19.6248V11.4161C38.9157 11.2074 34.1451 6.1987 34.1451 0.0769653Z" fill="white"/>
</g>
<defs>
<clipPath id="clip0_3_13">
<rect width="48" height="48" fill="white" transform="translate(0 0.0769653)"/>
</clipPath>
</defs>
</svg>
