<svg width="48" height="49" viewBox="0 0 48 49" fill="none" xmlns="http://www.w3.org/2000/svg">
<g clip-path="url(#clip0_3_4)">
<path d="M15.1003 43.577C33.2091 43.577 43.1166 28.5705 43.1166 15.5608C43.1166 15.1389 43.1072 14.7077 43.0884 14.2858C45.0158 12.892 46.679 11.1656 48 9.18765C46.205 9.98626 44.2993 10.5078 42.3478 10.7345C44.4026 9.50287 45.9411 7.568 46.6781 5.28859C44.7451 6.43417 42.6312 7.24228 40.4269 7.67828C38.9417 6.10018 36.978 5.05529 34.8394 4.70516C32.7008 4.35503 30.5064 4.71916 28.5955 5.74125C26.6846 6.76334 25.1636 8.38647 24.2677 10.3597C23.3718 12.3329 23.1509 14.5463 23.6391 16.6577C19.725 16.4612 15.8959 15.4445 12.4 13.6733C8.90405 11.902 5.81939 9.41593 3.34594 6.37609C2.0888 8.54354 1.70411 11.1083 2.27006 13.5492C2.83601 15.9901 4.31013 18.124 6.39281 19.517C4.82926 19.4674 3.29995 19.0464 1.93125 18.2889V18.4108C1.92985 20.6854 2.7162 22.8902 4.15662 24.6506C5.59704 26.411 7.60265 27.6182 9.8325 28.067C8.38411 28.4633 6.86396 28.5211 5.38969 28.2358C6.01891 30.1919 7.24315 31.9028 8.89154 33.1297C10.5399 34.3566 12.5302 35.0382 14.5847 35.0795C11.0968 37.8193 6.78835 39.3053 2.35313 39.2983C1.56657 39.2971 0.780798 39.2489 0 39.1539C4.50571 42.0446 9.74706 43.5798 15.1003 43.577Z" fill="white"/>
</g>
<defs>
<clipPath id="clip0_3_4">
<rect width="48" height="48" fill="white" transform="translate(0 0.0769653)"/>
</clipPath>
</defs>
</svg>
